# xmcd CD database file
#
# Track frame offsets:
#	150
#	24895
#	41897
#	64777
#	83235
#	107487
#	134442
#	159007
#	180370
#	203542
#
# Disc length: 3034 seconds
#
# Revision: 2
# Processed by: cddbd v1.4PL0 Copyright (c) Steve Scherf et al.
# Submitted via: CDex 1.40Beta9
#
DISCID=710bd80a
DTITLE=Charles Brown - Just A Lucky So And So
DYEAR=1994
DGENRE=Blues
TTITLE0=I Won't Cry Any More
TTITLE1=Just a Lucky So and So
TTITLE2=Black Night
TTITLE3=One Never Knows
TTITLE4=Driftin' Blues
TTITLE5=Gloomy Sunday
TTITLE6=I Stepped in Quicksand
TTITLE7=The danger Isn'y Over
TTITLE8=A Song For Christmas
TTITLE9=So Long
EXTD=YEAR: 1994 ID3G: 0
EXTT0=
EXTT1=
EXTT2=
EXTT3=
EXTT4=
EXTT5=
EXTT6=
EXTT7=
EXTT8=
EXTT9=
PLAYORDER=
